<svg width="30" height="30" viewBox="0 0 30 30" fill="none" xmlns="http://www.w3.org/2000/svg">
<g clip-path="url(#clip0_1_39)">
<path d="M9.04453 12.6063L14.8706 6.78045L20.6997 12.6093L24.0897 9.21934L14.8706 0L5.65454 9.21626L9.04453 12.6063Z" fill="#717070"/>
<path d="M6.65043 14.9994L3.2605 11.6095L-0.129601 14.9996L3.26033 18.3895L6.65043 14.9994Z" fill="#717070"/>
<path d="M9.0445 17.3937L14.8705 23.2195L20.6994 17.3909L24.0913 20.779L24.0896 20.7809L14.8705 30L5.65428 20.7839L5.64954 20.7792L9.0445 17.3937Z" fill="#717070"/>
<path d="M26.4808 18.3912L29.8708 15.0011L26.4809 11.6112L23.0908 15.0013L26.4808 18.3912Z" fill="#717070"/>
<path d="M18.309 14.9982H18.3105L14.8705 11.5582L12.3283 14.1004H12.328L12.0361 14.3926L11.4336 14.9951L11.4288 14.9999L11.4336 15.0048L14.8705 18.4418L18.3105 15.0018L18.3121 14.9999L18.309 14.9982Z" fill="#717070"/>
</g>
<defs>
<clipPath id="clip0_1_39">
<rect width="30" height="30" fill="white"/>
</clipPath>
</defs>
</svg>
