<svg width="512" height="512" viewBox="0 0 512 512" fill="none" xmlns="http://www.w3.org/2000/svg">
<path d="M504 256C504 393 393 504 256 504C119 504 8 393 8 256C8 119 119 8 256 8C393 8 504 119 504 256ZM362.3 220.7C367.2 187.7 342.1 170 307.7 158.1L318.8 113.4L291.6 106.6L280.7 150.1C273.5 148.3 266.2 146.6 258.9 145L269.8 101.2L242.6 94.4L231.4 139.1C225.5 137.8 219.7 136.4 214 135V134.9L176.5 125.5L169.3 154.6C169.3 154.6 189.5 159.2 189.1 159.5C200.1 162.3 202.1 169.5 201.8 175.3L189.1 226.2C189.9 226.4 190.8 226.7 191.9 227.1C191 226.9 190 226.6 189 226.4L171.2 297.7C169.9 301 166.4 306.1 158.7 304.2C159 304.6 138.9 299.3 138.9 299.3L125.4 330.4L160.8 339.2C167.4 340.9 173.8 342.6 180.2 344.2L168.9 389.4L196.1 396.2L207.3 351.5C214.513 353.445 221.747 355.311 229 357.1L217.9 401.6L245.1 408.4L256.4 363.3C302.8 372.1 337.7 368.5 352.4 326.6C364.2 292.8 351.8 273.3 327.4 260.6C345.2 256.5 358.6 244.8 362.1 220.7H362.3ZM300.1 307.9C291.7 341.7 234.8 323.4 216.3 318.8L231.2 258.9C249.6 263.5 308.8 272.6 300 307.9H300.1ZM308.5 220.2C300.8 250.9 253.5 235.3 238.1 231.5L251.6 177.2C267 181 316.4 188.2 308.4 220.2H308.5Z" fill="black"/>
</svg>
