<svg width="576" height="512" viewBox="0 0 576 512" fill="none" xmlns="http://www.w3.org/2000/svg">
<g clip-path="url(#clip0_61_223)">
<path d="M304 240V16.6C304 7.6 311 0 320 0C443.7 0 544 100.3 544 224C544 233 536.4 240 527.4 240H304ZM32 272C32 150.7 122.1 50.3 239 34.3C248.2 33 256 40.4 256 49.7V288L412.5 444.5C419.2 451.2 418.7 462.2 411 467.6C371.8 495.6 323.8 512 272 512C139.5 512 32 404.6 32 272ZM558.4 288C567.7 288 575 295.8 573.8 305C566.1 360.9 539.2 410.6 499.9 447.3C493.9 452.9 484.5 452.5 478.7 446.6L320 288H558.4Z" fill="black"/>
</g>
<defs>
<clipPath id="clip0_61_223">
<rect width="576" height="512" fill="white"/>
</clipPath>
</defs>
</svg>
