<svg width="138" height="22" viewBox="0 0 138 22" fill="none" xmlns="http://www.w3.org/2000/svg">
<path d="M10.8521 21.3523C4.76367 21.3523 0.972465 17.4766 0.972465 10.8244C0.972465 4.18622 4.79186 0.31046 10.8521 0.31046C15.9963 0.31046 19.9003 3.62248 20.0553 8.42843H15.0803C14.8266 6.0325 13.1212 4.45401 10.8521 4.45401C8.0334 4.45401 6.24351 6.86403 6.24351 10.8103C6.24351 14.7988 8.01931 17.2088 10.8662 17.2088C13.1353 17.2088 14.7843 15.7149 15.1084 13.333H20.0835C19.8439 18.1672 16.095 21.3523 10.8521 21.3523ZM30.8381 0.31046C36.9971 0.31046 40.8728 4.35535 40.8728 10.8384C40.8728 17.3215 36.9971 21.3523 30.8381 21.3523C24.6651 21.3523 20.7893 17.3215 20.7893 10.8384C20.7893 4.35535 24.6792 0.31046 30.8381 0.31046ZM30.8381 4.51038C27.9489 4.51038 26.0604 6.96268 26.0604 10.8384C26.0604 14.7001 27.9348 17.1524 30.8381 17.1524C33.7273 17.1524 35.6159 14.7001 35.6159 10.8384C35.6159 6.96268 33.7273 4.51038 30.8381 4.51038ZM47.4134 21H42.2411V0.662802H47.4134V21ZM54.25 21H49.3454V0.662802H53.4749L62.1002 12.4874H62.2129V0.662802H67.1175V21H63.0304L54.3628 9.06264H54.25V21ZM74.8279 21V5.82109H75.9272V21H74.8279ZM75.3776 2.10036C74.8984 2.10036 74.5038 1.71983 74.5038 1.24064C74.5038 0.747364 74.8984 0.366834 75.3776 0.366834C75.8709 0.366834 76.2655 0.747364 76.2655 1.24064C76.2655 1.71983 75.8709 2.10036 75.3776 2.10036ZM83.1748 21V5.82109H84.2036V9.1613H84.2459C84.9506 7.03315 86.9096 5.62378 89.4887 5.62378C92.8289 5.62378 95.0417 7.79421 95.0417 11.2049V21H93.9424V11.3317C93.9424 8.38615 92.082 6.62443 89.2492 6.62443C86.2754 6.62443 84.2741 8.80896 84.2741 11.9659V21H83.1748ZM102.797 21V6.77946H100.683V5.82109H102.797V3.66476C102.797 1.18427 104.023 0.141335 106.151 0.141335C106.588 0.141335 106.982 0.183616 107.264 0.268178V1.22655C106.954 1.14199 106.588 1.09971 106.207 1.09971C104.756 1.09971 103.896 1.81848 103.896 3.73523V5.82109H107.152V6.77946H103.896V21H102.797ZM118.543 21.1973C114.498 21.1973 111.792 18.1813 111.792 13.4176C111.792 8.63983 114.512 5.62378 118.543 5.62378C122.587 5.62378 125.308 8.63983 125.308 13.4176C125.308 18.1813 122.587 21.1973 118.543 21.1973ZM118.543 20.2108C121.953 20.2108 124.194 17.5893 124.194 13.4176C124.194 9.21767 121.953 6.62443 118.543 6.62443C115.132 6.62443 112.891 9.21767 112.891 13.4176C112.891 17.6034 115.132 20.2108 118.543 20.2108Z" fill="black"/>
<path d="M134.344 21.1973C132.724 21.1973 131.413 19.8867 131.413 18.2662C131.413 16.6456 132.724 15.3351 134.344 15.3351C135.965 15.3351 137.276 16.6456 137.276 18.2662C137.276 19.8867 135.965 21.1973 134.344 21.1973Z" fill="#FF0000"/>
</svg>
